<svg width="76" height="61" viewBox="0 0 76 61" fill="none" xmlns="http://www.w3.org/2000/svg">
<path d="M11.0465 17.3749C11.0471 14.3792 11.8221 11.4345 13.2962 8.82664C14.7704 6.21876 16.8937 4.03624 19.46 2.49087C22.0263 0.945496 24.9485 0.0897532 27.943 0.006684C30.9376 -0.0763852 33.9027 0.61604 36.5508 2.01677C39.1988 3.41749 41.4398 5.47895 43.0563 8.00108C44.6727 10.5232 45.6098 13.4204 45.7765 16.4114C45.9432 19.4025 45.3339 22.3858 44.0077 25.072C42.6815 27.7581 40.6834 30.0558 38.2074 31.7421C43.5395 33.6978 48.1643 37.2044 51.4866 41.8106C54.8089 46.4168 56.6768 51.9119 56.8498 57.5886C56.8424 58.2007 56.5989 58.7862 56.1699 59.2229C55.741 59.6596 55.16 59.9137 54.5482 59.932C53.9363 59.9504 53.3411 59.7316 52.8868 59.3214C52.4325 58.9112 52.1542 58.3413 52.1102 57.7308C51.922 51.574 49.344 45.7323 44.9224 41.4438C40.5008 37.1552 34.5831 34.7568 28.4233 34.7568C22.2636 34.7568 16.3459 37.1552 11.9243 41.4438C7.5027 45.7323 4.92465 51.574 4.73649 57.7308C4.70486 58.3496 4.43214 58.9314 3.97677 59.3515C3.52139 59.7717 2.91958 59.9968 2.30026 59.9786C1.68094 59.9604 1.09337 59.7004 0.663424 59.2543C0.233478 58.8081 -0.00464449 58.2114 6.86538e-05 57.5918C0.172436 51.9145 2.04001 46.4187 5.36239 41.8119C8.68477 37.205 13.3099 33.698 18.6424 31.7421C16.3005 30.1485 14.3841 28.0061 13.0601 25.5019C11.7361 22.9976 11.0448 20.2075 11.0465 17.3749ZM28.4249 4.73596C25.0729 4.73596 21.8581 6.06755 19.4879 8.43781C17.1176 10.8081 15.786 14.0228 15.786 17.3749C15.786 20.7269 17.1176 23.9416 19.4879 26.3119C21.8581 28.6821 25.0729 30.0137 28.4249 30.0137C31.777 30.0137 34.9917 28.6821 37.362 26.3119C39.7322 23.9416 41.0638 20.7269 41.0638 17.3749C41.0638 14.0228 39.7322 10.8081 37.362 8.43781C34.9917 6.06755 31.777 4.73596 28.4249 4.73596ZM54.619 17.3749C54.1514 17.3749 53.6964 17.4064 53.2477 17.4696C52.9344 17.5257 52.6131 17.5182 52.3028 17.4474C51.9926 17.3766 51.6997 17.244 51.4418 17.0576C51.1839 16.8711 50.9662 16.6347 50.8016 16.3623C50.637 16.0899 50.529 15.7871 50.484 15.4721C50.439 15.157 50.4579 14.8362 50.5396 14.5286C50.6213 14.221 50.7642 13.933 50.9596 13.6819C51.155 13.4307 51.399 13.2214 51.677 13.0666C51.955 12.9117 52.2614 12.8145 52.5778 12.7806C55.7204 12.3263 58.9249 12.9297 61.6869 14.4961C64.4489 16.0625 66.6117 18.5028 67.8349 21.433C69.0581 24.3632 69.2722 27.6169 68.4436 30.6821C67.615 33.7474 65.7906 36.4501 63.2577 38.3649C66.9811 40.0321 70.1425 42.7411 72.3605 46.1651C74.5785 49.5891 75.7583 53.5817 75.7576 57.6613C75.7576 58.2898 75.5079 58.8926 75.0635 59.337C74.619 59.7814 74.0163 60.0311 73.3878 60.0311C72.7593 60.0311 72.1565 59.7814 71.7121 59.337C71.2677 58.8926 71.018 58.2898 71.018 57.6613C71.0176 54.1355 69.8816 50.7036 67.7781 47.874C65.6747 45.0444 62.7158 42.9676 59.3396 41.9512L57.6524 41.4456V36.1499L58.9478 35.4895C60.8682 34.5168 62.4047 32.9253 63.3092 30.9719C64.2138 29.0185 64.4337 26.8173 63.9333 24.7236C63.433 22.6299 62.2417 20.7659 60.5517 19.4325C58.8617 18.0992 56.7717 17.3743 54.619 17.3749Z" fill="#007169" fill-opacity="0.5"/>
</svg>
