<svg width="79" height="73" viewBox="0 0 79 73" fill="none" xmlns="http://www.w3.org/2000/svg">
<path d="M68.6667 70.3184H10.3333C8.1232 70.3184 6.00358 69.4404 4.44078 67.8776C2.87797 66.3148 2 64.1952 2 61.9851V24.4851C2 22.2749 2.87797 20.1553 4.44078 18.5925C6.00358 17.0297 8.1232 16.1517 10.3333 16.1517H68.6667C70.8768 16.1517 72.9964 17.0297 74.5592 18.5925C76.122 20.1553 77 22.2749 77 24.4851V61.9851C77 64.1952 76.122 66.3148 74.5592 67.8776C72.9964 69.4404 70.8768 70.3184 68.6667 70.3184Z" stroke="#007169" stroke-opacity="0.5" stroke-width="4"/>
<path d="M58.25 45.3184C57.6975 45.3184 57.1676 45.0989 56.7769 44.7082C56.3862 44.3175 56.1667 43.7876 56.1667 43.2351C56.1667 42.6825 56.3862 42.1526 56.7769 41.7619C57.1676 41.3712 57.6975 41.1517 58.25 41.1517C58.8025 41.1517 59.3324 41.3712 59.7231 41.7619C60.1138 42.1526 60.3333 42.6825 60.3333 43.2351C60.3333 43.7876 60.1138 44.3175 59.7231 44.7082C59.3324 45.0989 58.8025 45.3184 58.25 45.3184Z" fill="white" stroke="#007169" stroke-opacity="0.5" stroke-width="4" stroke-linecap="round" stroke-linejoin="round"/>
<path d="M64.5 16.1518V10.331C64.4996 9.05394 64.2058 7.79403 63.6411 6.64859C63.0764 5.50314 62.256 4.5028 61.2433 3.72481C60.2305 2.94683 59.0525 2.41202 57.8002 2.16168C56.5479 1.91134 55.2548 1.95217 54.0208 2.28101L8.1875 14.5018C6.41272 14.9748 4.84391 16.0209 3.72496 17.4774C2.606 18.9339 1.99959 20.7193 2 22.556V24.4852" stroke="#007169" stroke-opacity="0.5" stroke-width="4"/>
</svg>
