<svg width="54" height="76" viewBox="0 0 54 76" fill="none" xmlns="http://www.w3.org/2000/svg">
<path d="M48.1416 37.9167C45.3837 35.605 41.8778 34.3779 38.2803 34.4652H15.1555C14.1012 34.4918 13.0523 34.3054 12.0717 33.9172C11.091 33.5289 10.1988 32.9468 9.44845 32.2056C8.69808 31.4645 8.10498 30.5795 7.70464 29.6038C7.30431 28.628 7.10498 27.5815 7.11858 26.5269C7.09287 26.1164 7.09287 25.7047 7.11858 25.2942C7.42948 23.4097 8.41762 21.7036 9.89745 20.4961C11.3773 19.2887 13.247 18.6629 15.1555 18.7365H37.9351C39.7933 18.7348 41.5916 19.3932 43.0095 20.5943C44.4273 21.7954 45.3724 23.4611 45.6762 25.2942H53.0722C52.7626 21.4924 51.0336 17.9463 48.229 15.3609C45.4244 12.7755 41.7495 11.3403 37.9351 11.3405H30.1447V0H23.9814V11.3405H15.1555C11.3411 11.3403 7.66627 12.7755 4.86166 15.3609C2.05705 17.9463 0.328061 21.4924 0.0184475 25.2942C-0.00614915 25.7047 -0.00614915 26.1164 0.0184475 26.5269C0.0184475 28.5147 0.409979 30.4831 1.17069 32.3196C1.9314 34.1561 3.04639 35.8248 4.452 37.2304C7.29075 40.0692 11.1409 41.664 15.1555 41.664H38.5268C39.5728 41.6376 40.6135 41.821 41.5875 42.2031C42.5616 42.5853 43.4493 43.1586 44.1983 43.8892C44.9473 44.6199 45.5424 45.493 45.9487 46.4573C46.3549 47.4215 46.5641 48.4573 46.5637 49.5037C46.6149 50.0613 46.6149 50.6225 46.5637 51.1801C46.1723 52.915 45.2025 54.4652 43.8138 55.5762C42.425 56.6872 40.6997 57.293 38.9212 57.2941H15.7472C13.9687 57.293 12.2435 56.6872 10.8547 55.5762C9.46593 54.4652 8.4962 52.915 8.10471 51.1801H0.659432C1.08316 54.8848 2.85506 58.3041 5.63749 60.7864C8.41992 63.2688 12.0184 64.6407 15.7472 64.6408H23.9814V75.8333H30.1447V64.6408H38.5268C42.2556 64.6407 45.8541 63.2688 48.6365 60.7864C51.4189 58.3041 53.1908 54.8848 53.6146 51.1801V49.5037C53.6086 47.289 53.1152 45.1028 52.1693 43.1003C51.2234 41.0977 49.8483 39.328 48.1416 37.9167Z" fill="#007169" fill-opacity="0.5"/>
</svg>
