<svg width="81" height="74" viewBox="0 0 81 74" fill="none" xmlns="http://www.w3.org/2000/svg">
<path d="M69.6667 71.3184H11.3333C9.1232 71.3184 7.00358 70.4404 5.44078 68.8776C3.87797 67.3148 3 65.1952 3 62.9851V25.4851C3 23.2749 3.87797 21.1553 5.44078 19.5925C7.00358 18.0297 9.1232 17.1517 11.3333 17.1517H69.6667C71.8768 17.1517 73.9964 18.0297 75.5592 19.5925C77.122 21.1553 78 23.2749 78 25.4851V62.9851C78 65.1952 77.122 67.3148 75.5592 68.8776C73.9964 70.4404 71.8768 71.3184 69.6667 71.3184Z" stroke="#007169" stroke-width="5"/>
<path d="M59.25 46.3184C58.6975 46.3184 58.1676 46.0989 57.7769 45.7082C57.3862 45.3175 57.1667 44.7876 57.1667 44.2351C57.1667 43.6825 57.3862 43.1526 57.7769 42.7619C58.1676 42.3712 58.6975 42.1517 59.25 42.1517C59.8025 42.1517 60.3324 42.3712 60.7231 42.7619C61.1138 43.1526 61.3333 43.6825 61.3333 44.2351C61.3333 44.7876 61.1138 45.3175 60.7231 45.7082C60.3324 46.0989 59.8025 46.3184 59.25 46.3184Z" fill="white" stroke="#007169" stroke-width="5" stroke-linecap="round" stroke-linejoin="round"/>
<path d="M65.5 17.1518V11.331C65.4996 10.0539 65.2058 8.79403 64.6411 7.64859C64.0764 6.50314 63.256 5.5028 62.2433 4.72481C61.2305 3.94683 60.0525 3.41202 58.8002 3.16168C57.5479 2.91134 56.2548 2.95217 55.0208 3.28101L9.1875 15.5018C7.41272 15.9748 5.84391 17.0209 4.72496 18.4774C3.606 19.9339 2.99959 21.7193 3 23.556V25.4852" stroke="#007169" stroke-width="5"/>
</svg>
