<svg width="1280" height="720" viewBox="0 0 1280 720" fill="none" xmlns="http://www.w3.org/2000/svg">
<g clip-path="url(#clip0_4_52)">
<rect width="1280" height="720" fill="white"/>
<rect x="191" y="58" width="514.5" height="90" fill="#FCFCFC"/>
<rect y="39" width="170.625" height="681" fill="#EFEFEF"/>
<line x1="27.8125" y1="208.625" x2="141.562" y2="208.625" stroke="#007468" stroke-width="1.89583"/>
<line x1="27.8125" y1="379.25" x2="141.562" y2="379.25" stroke="#007468" stroke-width="1.89583"/>
<line x1="27.8125" y1="549.875" x2="141.562" y2="549.875" stroke="#007468" stroke-width="1.89583"/>
<rect width="1280" height="38" fill="#F7C532"/>
<rect x="826" width="454" height="38" fill="white" fill-opacity="0.25"/>
<path d="M1001.54 27V16.88L997.36 24.56H996.04L991.84 16.88V27H989.6V12.8H992L996.7 21.48L1001.4 12.8H1003.8V27H1001.54ZM1011.29 27.2C1010.47 27.2 1009.73 27.06 1009.07 26.78C1008.41 26.4867 1007.85 26.0933 1007.37 25.6C1006.89 25.0933 1006.51 24.52 1006.25 23.88C1005.99 23.2267 1005.87 22.5333 1005.87 21.8C1005.87 20.8133 1006.09 19.9133 1006.55 19.1C1007 18.2733 1007.63 17.6133 1008.45 17.12C1009.26 16.6133 1010.21 16.36 1011.31 16.36C1012.4 16.36 1013.34 16.6133 1014.13 17.12C1014.93 17.6133 1015.55 18.2667 1015.99 19.08C1016.43 19.8933 1016.65 20.7667 1016.65 21.7C1016.65 21.86 1016.64 22.0133 1016.63 22.16C1016.61 22.2933 1016.6 22.4067 1016.59 22.5H1008.21C1008.25 23.1133 1008.41 23.6533 1008.71 24.12C1009.01 24.5733 1009.4 24.9333 1009.87 25.2C1010.33 25.4533 1010.83 25.58 1011.37 25.58C1011.95 25.58 1012.51 25.4333 1013.03 25.14C1013.56 24.8467 1013.92 24.46 1014.11 23.98L1015.99 24.52C1015.76 25.0267 1015.41 25.4867 1014.95 25.9C1014.49 26.3 1013.95 26.62 1013.33 26.86C1012.7 27.0867 1012.02 27.2 1011.29 27.2ZM1008.15 21.04H1014.47C1014.43 20.44 1014.25 19.9133 1013.95 19.46C1013.65 18.9933 1013.27 18.6333 1012.81 18.38C1012.35 18.1133 1011.85 17.98 1011.29 17.98C1010.74 17.98 1010.23 18.1133 1009.77 18.38C1009.31 18.6333 1008.94 18.9933 1008.65 19.46C1008.35 19.9133 1008.19 20.44 1008.15 21.04ZM1008.37 14.3L1010.45 12.4H1012.03L1014.11 14.3L1012.93 14.86L1011.23 13.6L1009.53 14.86L1008.37 14.3ZM1022.16 27.2C1021.28 27.2 1020.45 27.06 1019.66 26.78C1018.87 26.4867 1018.2 26.0533 1017.64 25.48L1018.46 24C1019.06 24.5333 1019.66 24.92 1020.26 25.16C1020.87 25.4 1021.48 25.52 1022.08 25.52C1022.69 25.52 1023.19 25.4067 1023.58 25.18C1023.97 24.94 1024.16 24.5933 1024.16 24.14C1024.16 23.8067 1024.06 23.56 1023.86 23.4C1023.66 23.24 1023.37 23.1 1022.98 22.98C1022.61 22.86 1022.15 22.7267 1021.62 22.58C1020.87 22.3533 1020.25 22.12 1019.74 21.88C1019.23 21.6267 1018.85 21.32 1018.6 20.96C1018.35 20.6 1018.22 20.14 1018.22 19.58C1018.22 18.9 1018.39 18.32 1018.74 17.84C1019.09 17.36 1019.57 16.9933 1020.18 16.74C1020.81 16.4867 1021.53 16.36 1022.34 16.36C1023.1 16.36 1023.8 16.48 1024.44 16.72C1025.09 16.9467 1025.67 17.3067 1026.16 17.8L1025.22 19.26C1024.75 18.8333 1024.27 18.52 1023.78 18.32C1023.3 18.12 1022.78 18.02 1022.22 18.02C1021.9 18.02 1021.59 18.06 1021.3 18.14C1021.01 18.2067 1020.76 18.34 1020.56 18.54C1020.37 18.7267 1020.28 18.9933 1020.28 19.34C1020.28 19.62 1020.36 19.8467 1020.52 20.02C1020.68 20.1933 1020.92 20.34 1021.24 20.46C1021.56 20.58 1021.95 20.7133 1022.42 20.86C1023.23 21.1 1023.93 21.34 1024.5 21.58C1025.07 21.8067 1025.51 22.1067 1025.82 22.48C1026.14 22.84 1026.3 23.34 1026.3 23.98C1026.3 24.9933 1025.92 25.7867 1025.16 26.36C1024.41 26.92 1023.41 27.2 1022.16 27.2Z" fill="#007468"/>
<path d="M1172.6 27V12.8H1177.64C1179.17 12.8 1180.45 13.12 1181.48 13.76C1182.51 14.3867 1183.27 15.24 1183.78 16.32C1184.3 17.3867 1184.56 18.5733 1184.56 19.88C1184.56 21.32 1184.27 22.5733 1183.7 23.64C1183.14 24.7067 1182.34 25.5333 1181.3 26.12C1180.26 26.7067 1179.04 27 1177.64 27H1172.6ZM1182.28 19.88C1182.28 18.88 1182.09 18 1181.72 17.24C1181.36 16.4667 1180.83 15.8667 1180.14 15.44C1179.46 15 1178.63 14.78 1177.64 14.78H1174.84V25.02H1177.64C1178.64 25.02 1179.48 24.7933 1180.16 24.34C1180.85 23.8867 1181.38 23.2733 1181.74 22.5C1182.1 21.7267 1182.28 20.8533 1182.28 19.88ZM1186.62 27V16.54H1188.82V27H1186.62ZM1186.62 14.82V12.4H1188.82V14.82H1186.62ZM1190.7 23.94C1190.7 23.2733 1190.89 22.6933 1191.26 22.2C1191.65 21.6933 1192.17 21.3067 1192.84 21.04C1193.51 20.76 1194.28 20.62 1195.16 20.62C1195.63 20.62 1196.1 20.6533 1196.58 20.72C1197.07 20.7867 1197.51 20.8933 1197.88 21.04V20.38C1197.88 19.6467 1197.66 19.0733 1197.22 18.66C1196.78 18.2467 1196.15 18.04 1195.32 18.04C1194.73 18.04 1194.18 18.1467 1193.66 18.36C1193.14 18.56 1192.59 18.8467 1192 19.22L1191.26 17.74C1191.95 17.2733 1192.65 16.9267 1193.34 16.7C1194.05 16.4733 1194.79 16.36 1195.56 16.36C1196.96 16.36 1198.06 16.7333 1198.86 17.48C1199.67 18.2133 1200.08 19.26 1200.08 20.62V24.52C1200.08 24.7733 1200.12 24.9533 1200.2 25.06C1200.29 25.1667 1200.45 25.2267 1200.66 25.24V27C1200.46 27.04 1200.28 27.0667 1200.12 27.08C1199.96 27.0933 1199.83 27.1 1199.72 27.1C1199.25 27.1 1198.9 26.9867 1198.66 26.76C1198.42 26.5333 1198.28 26.2667 1198.24 25.96L1198.18 25.36C1197.73 25.9467 1197.15 26.4 1196.44 26.72C1195.73 27.04 1195.02 27.2 1194.3 27.2C1193.61 27.2 1192.99 27.06 1192.44 26.78C1191.89 26.4867 1191.47 26.0933 1191.16 25.6C1190.85 25.1067 1190.7 24.5533 1190.7 23.94ZM1197.36 24.58C1197.52 24.4067 1197.65 24.2333 1197.74 24.06C1197.83 23.8867 1197.88 23.7333 1197.88 23.6V22.4C1197.51 22.2533 1197.11 22.1467 1196.7 22.08C1196.29 22 1195.88 21.96 1195.48 21.96C1194.68 21.96 1194.03 22.12 1193.52 22.44C1193.03 22.76 1192.78 23.2 1192.78 23.76C1192.78 24.0667 1192.86 24.36 1193.02 24.64C1193.19 24.92 1193.43 25.1467 1193.74 25.32C1194.06 25.4933 1194.45 25.58 1194.92 25.58C1195.4 25.58 1195.86 25.4867 1196.3 25.3C1196.74 25.1133 1197.09 24.8733 1197.36 24.58Z" fill="#007468"/>
<path d="M840.7 12.8H842.82L848.34 27H845.98L844.48 23.14H839L837.52 27H835.14L840.7 12.8ZM844.04 21.48L841.76 15.26L839.4 21.48H844.04ZM859.196 27H856.996V21.14C856.996 20.1667 856.836 19.4533 856.516 19C856.209 18.5467 855.749 18.32 855.136 18.32C854.709 18.32 854.283 18.4267 853.856 18.64C853.443 18.8533 853.069 19.1467 852.736 19.52C852.403 19.88 852.163 20.3 852.016 20.78V27H849.816V16.54H851.816V18.64C852.083 18.1733 852.429 17.7733 852.856 17.44C853.296 17.0933 853.789 16.8267 854.336 16.64C854.883 16.4533 855.463 16.36 856.076 16.36C856.703 16.36 857.216 16.4733 857.616 16.7C858.029 16.9267 858.349 17.24 858.576 17.64C858.816 18.0267 858.976 18.48 859.056 19C859.149 19.5067 859.196 20.0467 859.196 20.62V27ZM866.45 27.2C865.623 27.2 864.883 27.06 864.23 26.78C863.576 26.4867 863.01 26.0867 862.53 25.58C862.063 25.0733 861.703 24.5 861.45 23.86C861.196 23.2067 861.07 22.5133 861.07 21.78C861.07 21.0467 861.196 20.3533 861.45 19.7C861.703 19.0467 862.063 18.4733 862.53 17.98C863.01 17.4733 863.576 17.08 864.23 16.8C864.896 16.5067 865.636 16.36 866.45 16.36C867.263 16.36 867.996 16.5067 868.65 16.8C869.316 17.08 869.883 17.4733 870.35 17.98C870.83 18.4733 871.196 19.0467 871.45 19.7C871.703 20.3533 871.83 21.0467 871.83 21.78C871.83 22.5133 871.703 23.2067 871.45 23.86C871.196 24.5 870.83 25.0733 870.35 25.58C869.883 26.0867 869.316 26.4867 868.65 26.78C867.996 27.06 867.263 27.2 866.45 27.2ZM863.33 21.8C863.33 22.4667 863.47 23.0667 863.75 23.6C864.03 24.1333 864.403 24.5533 864.87 24.86C865.336 25.1667 865.863 25.32 866.45 25.32C867.023 25.32 867.543 25.1667 868.01 24.86C868.49 24.54 868.87 24.1133 869.15 23.58C869.43 23.0333 869.57 22.4333 869.57 21.78C869.57 21.1133 869.43 20.5133 869.15 19.98C868.87 19.4467 868.49 19.0267 868.01 18.72C867.543 18.4 867.023 18.24 866.45 18.24C865.863 18.24 865.336 18.4 864.87 18.72C864.403 19.04 864.03 19.4667 863.75 20C863.47 20.52 863.33 21.12 863.33 21.8Z" fill="#007468"/>
<rect x="871.625" y="554.5" width="116.125" height="145.5" fill="white"/>
<rect x="1008" y="554" width="116.125" height="145.5" fill="white"/>
<path d="M192.6 77V62.8H202.06V64.78H194.84V69.02H200.88V70.88H194.84V77H192.6ZM202.126 73.94C202.126 73.2733 202.313 72.6933 202.686 72.2C203.073 71.6933 203.6 71.3067 204.266 71.04C204.933 70.76 205.706 70.62 206.586 70.62C207.053 70.62 207.526 70.6533 208.006 70.72C208.5 70.7867 208.933 70.8933 209.306 71.04V70.38C209.306 69.6467 209.086 69.0733 208.646 68.66C208.206 68.2467 207.573 68.04 206.746 68.04C206.16 68.04 205.606 68.1467 205.086 68.36C204.566 68.56 204.013 68.8467 203.426 69.22L202.686 67.74C203.38 67.2733 204.073 66.9267 204.766 66.7C205.473 66.4733 206.213 66.36 206.986 66.36C208.386 66.36 209.486 66.7333 210.286 67.48C211.1 68.2133 211.506 69.26 211.506 70.62V74.52C211.506 74.7733 211.546 74.9533 211.626 75.06C211.72 75.1667 211.873 75.2267 212.086 75.24V77C211.886 77.04 211.706 77.0667 211.546 77.08C211.386 77.0933 211.253 77.1 211.146 77.1C210.68 77.1 210.326 76.9867 210.086 76.76C209.846 76.5333 209.706 76.2667 209.666 75.96L209.606 75.36C209.153 75.9467 208.573 76.4 207.866 76.72C207.16 77.04 206.446 77.2 205.726 77.2C205.033 77.2 204.413 77.06 203.866 76.78C203.32 76.4867 202.893 76.0933 202.586 75.6C202.28 75.1067 202.126 74.5533 202.126 73.94ZM208.786 74.58C208.946 74.4067 209.073 74.2333 209.166 74.06C209.26 73.8867 209.306 73.7333 209.306 73.6V72.4C208.933 72.2533 208.54 72.1467 208.126 72.08C207.713 72 207.306 71.96 206.906 71.96C206.106 71.96 205.453 72.12 204.946 72.44C204.453 72.76 204.206 73.2 204.206 73.76C204.206 74.0667 204.286 74.36 204.446 74.64C204.62 74.92 204.86 75.1467 205.166 75.32C205.486 75.4933 205.88 75.58 206.346 75.58C206.826 75.58 207.286 75.4867 207.726 75.3C208.166 75.1133 208.52 74.8733 208.786 74.58ZM219.917 76.46C219.731 76.5533 219.497 76.6533 219.217 76.76C218.937 76.8667 218.617 76.96 218.257 77.04C217.911 77.12 217.551 77.16 217.177 77.16C216.724 77.16 216.304 77.08 215.917 76.92C215.531 76.76 215.217 76.5067 214.977 76.16C214.751 75.8 214.637 75.34 214.637 74.78V68.24H213.257V66.54H214.637V63.1H216.837V66.54H219.117V68.24H216.837V74.08C216.864 74.44 216.977 74.7067 217.177 74.88C217.391 75.0533 217.651 75.14 217.957 75.14C218.264 75.14 218.557 75.0867 218.837 74.98C219.117 74.8733 219.324 74.7867 219.457 74.72L219.917 76.46ZM221.341 72.94V66.54H223.541V72.5C223.541 73.4333 223.708 74.14 224.041 74.62C224.388 75.0867 224.888 75.32 225.541 75.32C225.954 75.32 226.354 75.2333 226.741 75.06C227.141 74.8867 227.501 74.6333 227.821 74.3C228.154 73.9533 228.421 73.54 228.621 73.06V66.54H230.821V74.52C230.821 74.7733 230.868 74.9533 230.961 75.06C231.054 75.1667 231.208 75.2267 231.421 75.24V77C231.194 77.04 231.008 77.0667 230.861 77.08C230.714 77.0933 230.574 77.1 230.441 77.1C230.041 77.1 229.708 76.9933 229.441 76.78C229.174 76.5533 229.021 76.2667 228.981 75.92L228.941 74.88C228.474 75.64 227.868 76.22 227.121 76.62C226.374 77.0067 225.554 77.2 224.661 77.2C223.568 77.2 222.741 76.84 222.181 76.12C221.621 75.4 221.341 74.34 221.341 72.94ZM239.509 68.44C238.655 68.4533 237.895 68.6467 237.229 69.02C236.575 69.3933 236.109 69.92 235.829 70.6V77H233.629V66.54H235.669V68.88C236.029 68.16 236.502 67.5867 237.089 67.16C237.675 66.72 238.295 66.48 238.949 66.44C239.082 66.44 239.189 66.44 239.269 66.44C239.362 66.44 239.442 66.4467 239.509 66.46V68.44ZM240.33 73.94C240.33 73.2733 240.516 72.6933 240.89 72.2C241.276 71.6933 241.803 71.3067 242.47 71.04C243.136 70.76 243.91 70.62 244.79 70.62C245.256 70.62 245.73 70.6533 246.21 70.72C246.703 70.7867 247.136 70.8933 247.51 71.04V70.38C247.51 69.6467 247.29 69.0733 246.85 68.66C246.41 68.2467 245.776 68.04 244.95 68.04C244.363 68.04 243.81 68.1467 243.29 68.36C242.77 68.56 242.216 68.8467 241.63 69.22L240.89 67.74C241.583 67.2733 242.276 66.9267 242.97 66.7C243.676 66.4733 244.416 66.36 245.19 66.36C246.59 66.36 247.69 66.7333 248.49 67.48C249.303 68.2133 249.71 69.26 249.71 70.62V74.52C249.71 74.7733 249.75 74.9533 249.83 75.06C249.923 75.1667 250.076 75.2267 250.29 75.24V77C250.09 77.04 249.91 77.0667 249.75 77.08C249.59 77.0933 249.456 77.1 249.35 77.1C248.883 77.1 248.53 76.9867 248.29 76.76C248.05 76.5333 247.91 76.2667 247.87 75.96L247.81 75.36C247.356 75.9467 246.776 76.4 246.07 76.72C245.363 77.04 244.65 77.2 243.93 77.2C243.236 77.2 242.616 77.06 242.07 76.78C241.523 76.4867 241.096 76.0933 240.79 75.6C240.483 75.1067 240.33 74.5533 240.33 73.94ZM246.99 74.58C247.15 74.4067 247.276 74.2333 247.37 74.06C247.463 73.8867 247.51 73.7333 247.51 73.6V72.4C247.136 72.2533 246.743 72.1467 246.33 72.08C245.916 72 245.51 71.96 245.11 71.96C244.31 71.96 243.656 72.12 243.15 72.44C242.656 72.76 242.41 73.2 242.41 73.76C242.41 74.0667 242.49 74.36 242.65 74.64C242.823 74.92 243.063 75.1467 243.37 75.32C243.69 75.4933 244.083 75.58 244.55 75.58C245.03 75.58 245.49 75.4867 245.93 75.3C246.37 75.1133 246.723 74.8733 246.99 74.58ZM268.379 77H266.179V71.14C266.179 70.1667 266.019 69.4533 265.699 69C265.379 68.5467 264.912 68.32 264.299 68.32C263.685 68.32 263.112 68.5533 262.579 69.02C262.059 69.4733 261.692 70.0667 261.479 70.8V77H259.279V71.14C259.279 70.1667 259.119 69.4533 258.799 69C258.479 68.5467 258.019 68.32 257.419 68.32C256.805 68.32 256.232 68.5467 255.699 69C255.179 69.4533 254.805 70.0467 254.579 70.78V77H252.379V66.54H254.379V68.64C254.792 67.9067 255.332 67.3467 255.999 66.96C256.679 66.56 257.452 66.36 258.319 66.36C259.185 66.36 259.865 66.5867 260.359 67.04C260.865 67.4933 261.179 68.06 261.299 68.74C261.752 67.9667 262.305 67.38 262.959 66.98C263.625 66.5667 264.385 66.36 265.239 66.36C265.852 66.36 266.365 66.4733 266.779 66.7C267.192 66.9267 267.512 67.24 267.739 67.64C267.965 68.0267 268.125 68.48 268.219 69C268.325 69.5067 268.379 70.0467 268.379 70.62V77ZM275.654 77.2C274.84 77.2 274.1 77.06 273.434 76.78C272.78 76.4867 272.214 76.0933 271.734 75.6C271.254 75.0933 270.88 74.52 270.614 73.88C270.36 73.2267 270.234 72.5333 270.234 71.8C270.234 70.8133 270.46 69.9133 270.914 69.1C271.367 68.2733 272 67.6133 272.814 67.12C273.627 66.6133 274.58 66.36 275.674 66.36C276.767 66.36 277.707 66.6133 278.494 67.12C279.294 67.6133 279.914 68.2667 280.354 69.08C280.794 69.8933 281.014 70.7667 281.014 71.7C281.014 71.86 281.007 72.0133 280.994 72.16C280.98 72.2933 280.967 72.4067 280.954 72.5H272.574C272.614 73.1133 272.78 73.6533 273.074 74.12C273.38 74.5733 273.767 74.9333 274.234 75.2C274.7 75.4533 275.2 75.58 275.734 75.58C276.32 75.58 276.874 75.4333 277.394 75.14C277.927 74.8467 278.287 74.46 278.474 73.98L280.354 74.52C280.127 75.0267 279.78 75.4867 279.314 75.9C278.86 76.3 278.32 76.62 277.694 76.86C277.067 77.0867 276.387 77.2 275.654 77.2ZM272.514 71.04H278.834C278.794 70.44 278.62 69.9133 278.314 69.46C278.02 68.9933 277.64 68.6333 277.174 68.38C276.72 68.1133 276.214 67.98 275.654 67.98C275.107 67.98 274.6 68.1133 274.134 68.38C273.68 68.6333 273.307 68.9933 273.014 69.46C272.72 69.9133 272.554 70.44 272.514 71.04ZM292.188 77H289.988V71.14C289.988 70.1667 289.828 69.4533 289.508 69C289.202 68.5467 288.742 68.32 288.128 68.32C287.702 68.32 287.275 68.4267 286.848 68.64C286.435 68.8533 286.062 69.1467 285.728 69.52C285.395 69.88 285.155 70.3 285.008 70.78V77H282.808V66.54H284.808V68.64C285.075 68.1733 285.422 67.7733 285.848 67.44C286.288 67.0933 286.782 66.8267 287.328 66.64C287.875 66.4533 288.455 66.36 289.068 66.36C289.695 66.36 290.208 66.4733 290.608 66.7C291.022 66.9267 291.342 67.24 291.568 67.64C291.808 68.0267 291.968 68.48 292.048 69C292.142 69.5067 292.188 70.0467 292.188 70.62V77ZM300.484 76.46C300.297 76.5533 300.064 76.6533 299.784 76.76C299.504 76.8667 299.184 76.96 298.824 77.04C298.477 77.12 298.117 77.16 297.744 77.16C297.29 77.16 296.87 77.08 296.484 76.92C296.097 76.76 295.784 76.5067 295.544 76.16C295.317 75.8 295.204 75.34 295.204 74.78V68.24H293.824V66.54H295.204V63.1H297.404V66.54H299.684V68.24H297.404V74.08C297.43 74.44 297.544 74.7067 297.744 74.88C297.957 75.0533 298.217 75.14 298.524 75.14C298.83 75.14 299.124 75.0867 299.404 74.98C299.684 74.8733 299.89 74.7867 300.024 74.72L300.484 76.46ZM306.571 77.2C305.744 77.2 305.004 77.06 304.351 76.78C303.697 76.4867 303.131 76.0867 302.651 75.58C302.184 75.0733 301.824 74.5 301.571 73.86C301.317 73.2067 301.191 72.5133 301.191 71.78C301.191 71.0467 301.317 70.3533 301.571 69.7C301.824 69.0467 302.184 68.4733 302.651 67.98C303.131 67.4733 303.697 67.08 304.351 66.8C305.017 66.5067 305.757 66.36 306.571 66.36C307.384 66.36 308.117 66.5067 308.771 66.8C309.437 67.08 310.004 67.4733 310.471 67.98C310.951 68.4733 311.317 69.0467 311.571 69.7C311.824 70.3533 311.951 71.0467 311.951 71.78C311.951 72.5133 311.824 73.2067 311.571 73.86C311.317 74.5 310.951 75.0733 310.471 75.58C310.004 76.0867 309.437 76.4867 308.771 76.78C308.117 77.06 307.384 77.2 306.571 77.2ZM303.451 71.8C303.451 72.4667 303.591 73.0667 303.871 73.6C304.151 74.1333 304.524 74.5533 304.991 74.86C305.457 75.1667 305.984 75.32 306.571 75.32C307.144 75.32 307.664 75.1667 308.131 74.86C308.611 74.54 308.991 74.1133 309.271 73.58C309.551 73.0333 309.691 72.4333 309.691 71.78C309.691 71.1133 309.551 70.5133 309.271 69.98C308.991 69.4467 308.611 69.0267 308.131 68.72C307.664 68.4 307.144 68.24 306.571 68.24C305.984 68.24 305.457 68.4 304.991 68.72C304.524 69.04 304.151 69.4667 303.871 70C303.591 70.52 303.451 71.12 303.451 71.8Z" fill="#007468"/>
<rect x="745" y="58" width="514.5" height="90" fill="#FCFCFC"/>
<path d="M746.6 77V62.8H748.84V75.02H756.46V77H746.6ZM757.9 72.94V66.54H760.1V72.5C760.1 73.4333 760.266 74.14 760.6 74.62C760.946 75.0867 761.446 75.32 762.1 75.32C762.513 75.32 762.913 75.2333 763.3 75.06C763.7 74.8867 764.06 74.6333 764.38 74.3C764.713 73.9533 764.98 73.54 765.18 73.06V66.54H767.38V74.52C767.38 74.7733 767.426 74.9533 767.52 75.06C767.613 75.1667 767.766 75.2267 767.98 75.24V77C767.753 77.04 767.566 77.0667 767.42 77.08C767.273 77.0933 767.133 77.1 767 77.1C766.6 77.1 766.266 76.9933 766 76.78C765.733 76.5533 765.58 76.2667 765.54 75.92L765.5 74.88C765.033 75.64 764.426 76.22 763.68 76.62C762.933 77.0067 762.113 77.2 761.22 77.2C760.126 77.2 759.3 76.84 758.74 76.12C758.18 75.4 757.9 74.34 757.9 72.94ZM774.927 77.2C774.114 77.2 773.374 77.06 772.707 76.78C772.054 76.4867 771.487 76.0867 771.007 75.58C770.527 75.0733 770.154 74.4933 769.887 73.84C769.634 73.1867 769.507 72.4933 769.507 71.76C769.507 70.7733 769.727 69.8733 770.167 69.06C770.621 68.2467 771.247 67.5933 772.047 67.1C772.861 66.6067 773.821 66.36 774.927 66.36C775.994 66.36 776.921 66.6 777.707 67.08C778.507 67.5467 779.094 68.1733 779.467 68.96L777.327 69.64C777.087 69.2 776.747 68.86 776.307 68.62C775.881 68.3667 775.407 68.24 774.887 68.24C774.301 68.24 773.767 68.3933 773.287 68.7C772.821 68.9933 772.447 69.4067 772.167 69.94C771.901 70.46 771.767 71.0667 771.767 71.76C771.767 72.4267 771.907 73.0333 772.187 73.58C772.467 74.1133 772.841 74.54 773.307 74.86C773.787 75.1667 774.321 75.32 774.907 75.32C775.267 75.32 775.614 75.26 775.947 75.14C776.294 75.0067 776.594 74.8333 776.847 74.62C777.101 74.3933 777.281 74.1467 777.387 73.88L779.547 74.52C779.321 75.04 778.981 75.5 778.527 75.9C778.087 76.3 777.561 76.62 776.947 76.86C776.347 77.0867 775.674 77.2 774.927 77.2ZM787.239 68.44C786.386 68.4533 785.626 68.6467 784.959 69.02C784.306 69.3933 783.839 69.92 783.559 70.6V77H781.359V66.54H783.399V68.88C783.759 68.16 784.232 67.5867 784.819 67.16C785.406 66.72 786.026 66.48 786.679 66.44C786.812 66.44 786.919 66.44 786.999 66.44C787.092 66.44 787.172 66.4467 787.239 66.46V68.44ZM793.344 77.2C792.518 77.2 791.778 77.06 791.124 76.78C790.471 76.4867 789.904 76.0867 789.424 75.58C788.958 75.0733 788.598 74.5 788.344 73.86C788.091 73.2067 787.964 72.5133 787.964 71.78C787.964 71.0467 788.091 70.3533 788.344 69.7C788.598 69.0467 788.958 68.4733 789.424 67.98C789.904 67.4733 790.471 67.08 791.124 66.8C791.791 66.5067 792.531 66.36 793.344 66.36C794.158 66.36 794.891 66.5067 795.544 66.8C796.211 67.08 796.778 67.4733 797.244 67.98C797.724 68.4733 798.091 69.0467 798.344 69.7C798.598 70.3533 798.724 71.0467 798.724 71.78C798.724 72.5133 798.598 73.2067 798.344 73.86C798.091 74.5 797.724 75.0733 797.244 75.58C796.778 76.0867 796.211 76.4867 795.544 76.78C794.891 77.06 794.158 77.2 793.344 77.2ZM790.224 71.8C790.224 72.4667 790.364 73.0667 790.644 73.6C790.924 74.1333 791.298 74.5533 791.764 74.86C792.231 75.1667 792.758 75.32 793.344 75.32C793.918 75.32 794.438 75.1667 794.904 74.86C795.384 74.54 795.764 74.1133 796.044 73.58C796.324 73.0333 796.464 72.4333 796.464 71.78C796.464 71.1133 796.324 70.5133 796.044 69.98C795.764 69.4467 795.384 69.0267 794.904 68.72C794.438 68.4 793.918 68.24 793.344 68.24C792.758 68.24 792.231 68.4 791.764 68.72C791.298 69.04 790.924 69.4667 790.644 70C790.364 70.52 790.224 71.12 790.224 71.8ZM805.897 77V62.8H808.137V75.02H815.757V77H805.897ZM817.297 77V66.54H819.497V77H817.297ZM817.297 64.82V62.4H819.497V64.82H817.297ZM826.12 77.2C825.44 77.2 824.814 77.06 824.24 76.78C823.68 76.4867 823.194 76.0933 822.78 75.6C822.367 75.0933 822.047 74.5133 821.82 73.86C821.607 73.1933 821.5 72.4933 821.5 71.76C821.5 71.0133 821.62 70.3133 821.86 69.66C822.114 69.0067 822.46 68.4333 822.9 67.94C823.354 67.4467 823.88 67.06 824.48 66.78C825.08 66.5 825.727 66.36 826.42 66.36C827.22 66.36 827.94 66.5533 828.58 66.94C829.234 67.3267 829.747 67.8267 830.12 68.44V66.54H832.06V81.26H829.86V75.04C828.98 76.48 827.734 77.2 826.12 77.2ZM826.92 75.32C827.36 75.32 827.76 75.2333 828.12 75.06C828.494 74.8867 828.82 74.6533 829.1 74.36C829.394 74.0533 829.647 73.7067 829.86 73.32V70.56C829.794 70.24 829.66 69.9467 829.46 69.68C829.274 69.4 829.04 69.1533 828.76 68.94C828.48 68.7133 828.18 68.54 827.86 68.42C827.54 68.3 827.227 68.24 826.92 68.24C826.454 68.24 826.027 68.34 825.64 68.54C825.254 68.74 824.914 69.0133 824.62 69.36C824.34 69.6933 824.12 70.0733 823.96 70.5C823.814 70.9267 823.74 71.3667 823.74 71.82C823.74 72.46 823.874 73.0467 824.14 73.58C824.42 74.1 824.794 74.52 825.26 74.84C825.74 75.16 826.294 75.32 826.92 75.32ZM834.599 72.94V66.54H836.799V72.5C836.799 73.4333 836.966 74.14 837.299 74.62C837.646 75.0867 838.146 75.32 838.799 75.32C839.212 75.32 839.612 75.2333 839.999 75.06C840.399 74.8867 840.759 74.6333 841.079 74.3C841.412 73.9533 841.679 73.54 841.879 73.06V66.54H844.079V74.52C844.079 74.7733 844.126 74.9533 844.219 75.06C844.312 75.1667 844.466 75.2267 844.679 75.24V77C844.452 77.04 844.266 77.0667 844.119 77.08C843.972 77.0933 843.832 77.1 843.699 77.1C843.299 77.1 842.966 76.9933 842.699 76.78C842.432 76.5533 842.279 76.2667 842.239 75.92L842.199 74.88C841.732 75.64 841.126 76.22 840.379 76.62C839.632 77.0067 838.812 77.2 837.919 77.2C836.826 77.2 835.999 76.84 835.439 76.12C834.879 75.4 834.599 74.34 834.599 72.94ZM846.886 77V66.54H849.086V77H846.886ZM848.746 65.04L847.306 64.6L848.446 62.4H850.546L848.746 65.04ZM851.07 71.78C851.07 70.78 851.27 69.8733 851.67 69.06C852.083 68.2333 852.643 67.58 853.35 67.1C854.057 66.6067 854.87 66.36 855.79 66.36C856.59 66.36 857.31 66.5667 857.95 66.98C858.603 67.3933 859.11 67.9067 859.47 68.52V62.4H861.67V74.52C861.67 74.7733 861.717 74.9533 861.81 75.06C861.903 75.1667 862.057 75.2267 862.27 75.24V77C861.857 77.0667 861.537 77.1 861.31 77.1C860.897 77.1 860.543 76.98 860.25 76.74C859.97 76.5 859.823 76.2133 859.81 75.88L859.79 75.1C859.39 75.7667 858.85 76.2867 858.17 76.66C857.49 77.02 856.783 77.2 856.05 77.2C855.33 77.2 854.663 77.06 854.05 76.78C853.45 76.5 852.923 76.1067 852.47 75.6C852.03 75.0933 851.683 74.5133 851.43 73.86C851.19 73.2067 851.07 72.5133 851.07 71.78ZM859.47 73.24V70.5C859.323 70.0733 859.083 69.6933 858.75 69.36C858.43 69.0133 858.063 68.74 857.65 68.54C857.25 68.34 856.85 68.24 856.45 68.24C855.983 68.24 855.557 68.34 855.17 68.54C854.797 68.74 854.47 69.0067 854.19 69.34C853.923 69.6733 853.717 70.0533 853.57 70.48C853.423 70.9067 853.35 71.3533 853.35 71.82C853.35 72.3 853.43 72.7533 853.59 73.18C853.75 73.5933 853.977 73.9667 854.27 74.3C854.577 74.62 854.923 74.8733 855.31 75.06C855.71 75.2333 856.143 75.32 856.61 75.32C856.903 75.32 857.197 75.2667 857.49 75.16C857.797 75.0533 858.083 74.9067 858.35 74.72C858.63 74.5333 858.863 74.3133 859.05 74.06C859.25 73.8067 859.39 73.5333 859.47 73.24ZM869.165 77.2C868.338 77.2 867.598 77.06 866.945 76.78C866.291 76.4867 865.725 76.0867 865.245 75.58C864.778 75.0733 864.418 74.5 864.165 73.86C863.911 73.2067 863.785 72.5133 863.785 71.78C863.785 71.0467 863.911 70.3533 864.165 69.7C864.418 69.0467 864.778 68.4733 865.245 67.98C865.725 67.4733 866.291 67.08 866.945 66.8C867.611 66.5067 868.351 66.36 869.165 66.36C869.978 66.36 870.711 66.5067 871.365 66.8C872.031 67.08 872.598 67.4733 873.065 67.98C873.545 68.4733 873.911 69.0467 874.165 69.7C874.418 70.3533 874.545 71.0467 874.545 71.78C874.545 72.5133 874.418 73.2067 874.165 73.86C873.911 74.5 873.545 75.0733 873.065 75.58C872.598 76.0867 872.031 76.4867 871.365 76.78C870.711 77.06 869.978 77.2 869.165 77.2ZM866.045 71.8C866.045 72.4667 866.185 73.0667 866.465 73.6C866.745 74.1333 867.118 74.5533 867.585 74.86C868.051 75.1667 868.578 75.32 869.165 75.32C869.738 75.32 870.258 75.1667 870.725 74.86C871.205 74.54 871.585 74.1133 871.865 73.58C872.145 73.0333 872.285 72.4333 872.285 71.78C872.285 71.1133 872.145 70.5133 871.865 69.98C871.585 69.4467 871.205 69.0267 870.725 68.72C870.258 68.4 869.738 68.24 869.165 68.24C868.578 68.24 868.051 68.4 867.585 68.72C867.118 69.04 866.745 69.4667 866.465 70C866.185 70.52 866.045 71.12 866.045 71.8Z" fill="#007468"/>
</g>
<defs>
<clipPath id="clip0_4_52">
<rect width="1280" height="720" fill="white"/>
</clipPath>
</defs>
</svg>
